<svg width="1130.08" height="738.14" xmlns="http://www.w3.org/2000/svg">
 <defs>
  <linearGradient y2="0.50256" x2="0.96983" y1="0.50256" x1="-0.03018" id="a340ed46-1652-4aba-8925-cf57be9109ca">
   <stop stop-opacity="0.25" stop-color="gray" offset="0"/>
   <stop stop-opacity="0.12" stop-color="gray" offset="0.54"/>
   <stop stop-opacity="0.1" stop-color="gray" offset="1"/>
  </linearGradient>
 </defs>
 <title>pair programming</title>
 <g>
  <title>background</title>
  <rect fill="none" id="canvas_background" height="602" width="802" y="-1" x="-1"/>
 </g>
 <g>
  <title>Layer 1</title>
  <path id="svg_1" opacity="0.1" fill="#6c63ff" d="m584.48,132.75c-71.37,12.06 -142.64,6.89 -211.2,-0.63s-136.95,-17.34 -208.35,-14.38c-45.93,1.9 -97.08,11 -129.15,37.45c-30.87,25.44 -35.68,59.77 -35.74,90.76c-0.08,23.31 1.94,47.43 18.46,66c11.48,12.88 29.15,22.11 42.46,34c46.31,41.3 32.23,106.33 1.84,161.62c-14.26,25.94 -31.7,51.45 -41.41,78s-11,55 6.38,76.65c17.22,21.47 50.53,33.57 85.26,39.84c70.54,12.74 149.13,4.83 225.17,-5.89c168.29,-23.81 334.84,-60.93 501.03,-97.96c61.49,-13.71 123.25,-27.48 182.49,-47.24c32.9,-11 66.4,-24.69 87.65,-46c27,-27 27.68,-63.93 1.66,-86c-43.66,-37 -142.48,-28.79 -176.25,-71.09c-18.58,-23.29 -10.49,-54.92 4.3,-82.86c31.71,-59.92 93,-119.12 85.06,-178.86c-5.48,-41 -47.29,-74.93 -103.33,-83.77c-58.74,-9.26 -134.18,8.3 -168,49.56c-34.77,42.51 -105.31,70.12 -168.33,80.8z"/>
  <rect id="svg_2" fill="#565661" height="65.63" width="283.43" y="359.24" x="360"/>
  <rect id="svg_3" opacity="0.1" height="65.63" width="283.43" y="359.24" x="360"/>
  <polygon id="svg_4" fill="#bcbec9" points="393.91 427.03 395.9 602.24 368.64 671.06 366.53 427.03 393.91 427.03"/>
  <polygon id="svg_5" fill="#565661" points="362.99 371.84 638.94 373.5 638.94 422.38 362.99 422.38 362.99 371.84"/>
  <polygon id="svg_6" fill="#bcbec9" points="615.33 427.03 638.94 430.36 638.94 668.4 615.33 595.59 615.33 427.03"/>
  <rect id="svg_7" fill="#efeff0" height="282.6" width="132.99" y="361.87" x="647.91"/>
  <rect id="svg_8" fill="#565661" height="217.23" width="111.71" y="369.72" x="658.55"/>
  <rect id="svg_9" opacity="0.1" height="217.23" width="111.71" y="369.72" x="658.55"/>
  <rect id="svg_10" fill="#565661" height="48.21" width="111.71" y="374.17" x="658.55"/>
  <rect id="svg_11" fill="#565661" height="102.4" width="111.71" y="427.03" x="658.55"/>
  <rect id="svg_12" fill="#565661" height="102.4" width="111.71" y="535.75" x="658.55"/>
  <rect id="svg_13" opacity="0.1" height="102.4" width="111.71" y="535.75" x="658.55"/>
  <ellipse id="svg_14" fill="#565661" ry="9.2" rx="7.2" cy="653.67" cx="663.21"/>
  <ellipse id="svg_15" fill="#565661" ry="9.2" rx="7.2" cy="654.11" cx="763.06"/>
  <polygon id="svg_16" fill="#efeff0" points="359 671.06 368.64 671.06 365.99 364.32 351.35 364.32 359 671.06"/>
  <polygon id="svg_17" fill="#efeff0" points="638.94 361.87 638.94 668.4 647.91 668.4 647.91 364.32 638.94 361.87"/>
  <polygon id="svg_18" fill="#efeff0" points="366.46 419.38 366.46 430.36 638.94 430.36 638.94 422.38 366.46 419.38"/>
  <polygon id="svg_19" fill="#fff" points="384.93 341.26 730.37 341.26 780.57 357.88 780.57 367.52 349.69 364.2 349.69 354.39 384.93 341.26"/>
  <polygon id="svg_20" fill="#bcbec9" points="349.69 354.39 780.57 357.88 780.57 367.52 349.69 364.2 349.69 354.39"/>
  <path id="svg_21" fill="url(#a340ed46-1652-4aba-8925-cf57be9109ca)" d="m388.72,468.71l-2,-0.3c0,-0.09 0,-0.17 0,-0.25c-0.06,-0.47 -0.13,-0.93 -0.2,-1.4c0.82,0.65 1.6,1.3 2.32,1.95l-0.12,0z"/>
  <path id="svg_22" fill="#a26565" d="m345.26,623.12c1.3,-0.3 2.62,-0.55 3.94,-0.73a47.42,47.42 0 0 1 26.62,3.92c-0.84,6.18 -1.67,12.57 0.11,18.54c1.24,4.2 3.73,8 4.26,12.38a7.3,7.3 0 0 1 5.75,5.08a11.05,11.05 0 0 1 0.57,3.56a19,19 0 0 1 -0.56,4.44a4.48,4.48 0 0 1 -4.8,4c-7.74,0.88 -15.33,-2.17 -22.53,-5.16l-14,-5.82c-1.64,-0.68 -3.29,-1.37 -4.86,-2.21a26.63,26.63 0 0 1 -7.79,-6.37a3.55,3.55 0 0 1 -0.93,-1.68c-0.26,-1.76 1.8,-2.81 3.11,-4a6.23,6.23 0 0 0 1,-1.22c1.55,-2.34 1.7,-5.57 2.63,-8.33c2.2,-6.55 9,-10.77 11.4,-17.16c0.13,-0.35 0.25,-0.7 0.35,-1.06"/>
  <path id="svg_23" opacity="0.1" d="m386.51,665.87a19,19 0 0 1 -0.56,4.44a4.48,4.48 0 0 1 -4.8,4c-7.74,0.88 -15.33,-2.17 -22.53,-5.16l-14,-5.82c-1.64,-0.68 -3.29,-1.37 -4.86,-2.21a26.63,26.63 0 0 1 -7.79,-6.37a3.55,3.55 0 0 1 -0.93,-1.68c-0.26,-1.76 1.8,-2.81 3.11,-4a6.23,6.23 0 0 0 1,-1.22c3.86,0.83 8.65,3.26 11.6,4.2a35.22,35.22 0 0 1 8.44,3.53c3.68,2.36 6.33,6 9.45,9s7.15,5.73 11.5,5.36a19,19 0 0 0 6.54,-2.26l3.83,-1.81z"/>
  <path id="svg_24" fill="#454b69" d="m370.12,523.76a4.63,4.63 0 0 1 -1.7,5c-1.31,0.81 -3,0.7 -4.3,1.58c-1.61,1.13 -1.84,3.37 -2.12,5.31c-1,6.67 -4.31,12.72 -7.14,18.85s-5.22,12.82 -4.18,19.48c0.71,4.52 2.93,9.34 0.85,13.41c-0.51,1 -1.27,1.89 -1.85,2.86c-2.85,4.76 -1.23,10.79 -1.34,16.33a3.23,3.23 0 0 1 -0.39,1.77a4.89,4.89 0 0 1 -1.58,1.22a8.38,8.38 0 0 0 -3.41,6.43a24.57,24.57 0 0 0 0.9,7.46a4.44,4.44 0 0 0 1.23,2.6a4.6,4.6 0 0 0 2.69,0.76a59.84,59.84 0 0 1 18.26,4.44c3.79,1.58 7.47,3.56 11.5,4.32a3,3 0 0 0 2.36,-0.25a3.25,3.25 0 0 0 1,-1.73c1.55,-5.1 3.12,-10.36 2.59,-15.66c-0.23,-2.28 -0.84,-4.51 -1,-6.79c-0.7,-9 5.39,-17.12 7.32,-26c0.87,-4 0.87,-8.14 1.49,-12.18c1.68,-11.07 7.78,-21 10.13,-31.95a34.73,34.73 0 0 1 1.52,-6c1.75,-4.24 5.8,-7.68 5.89,-12.27a4.78,4.78 0 0 0 -0.76,-2.86a6.48,6.48 0 0 0 -3.57,-2a121.87,121.87 0 0 0 -16.55,-3.34a31.35,31.35 0 0 0 -7.78,-0.54a22.9,22.9 0 0 0 -9.52,3.36c-3.86,2.38 -1.38,2.95 -0.54,6.39z"/>
  <path id="svg_25" opacity="0.05" d="m370.12,523.76a4.63,4.63 0 0 1 -1.7,5c-1.31,0.81 -3,0.7 -4.3,1.58c-1.61,1.13 -1.84,3.37 -2.12,5.31c-1,6.67 -4.31,12.72 -7.14,18.85s-5.22,12.82 -4.18,19.48c0.71,4.52 2.93,9.34 0.85,13.41c-0.51,1 -1.27,1.89 -1.85,2.86c-2.85,4.76 -1.23,10.79 -1.34,16.33a3.23,3.23 0 0 1 -0.39,1.77a4.89,4.89 0 0 1 -1.58,1.22a8.38,8.38 0 0 0 -3.41,6.43a24.57,24.57 0 0 0 0.9,7.46a4.44,4.44 0 0 0 1.23,2.6a4.6,4.6 0 0 0 2.69,0.76a59.84,59.84 0 0 1 18.26,4.44c3.79,1.58 7.47,3.56 11.5,4.32a3,3 0 0 0 2.36,-0.25a3.25,3.25 0 0 0 1,-1.73c1.55,-5.1 3.12,-10.36 2.59,-15.66c-0.23,-2.28 -0.84,-4.51 -1,-6.79c-0.7,-9 5.39,-17.12 7.32,-26c0.87,-4 0.87,-8.14 1.49,-12.18c1.68,-11.07 7.78,-21 10.13,-31.95a34.73,34.73 0 0 1 1.52,-6c1.75,-4.24 5.8,-7.68 5.89,-12.27a4.78,4.78 0 0 0 -0.76,-2.86a6.48,6.48 0 0 0 -3.57,-2a121.87,121.87 0 0 0 -16.55,-3.34a31.35,31.35 0 0 0 -7.78,-0.54a22.9,22.9 0 0 0 -9.52,3.36c-3.86,2.38 -1.38,2.95 -0.54,6.39z"/>
  <polygon id="svg_26" fill="#565661" points="350.55 674.47 342.02 674.47 336.44 559.83 336.05 553.31 343.3 550.76 343.79 557.69 350.55 674.47"/>
  <polygon id="svg_27" opacity="0.1" points="343.79 557.69 336.44 559.83 336.05 553.31 343.3 550.76 343.79 557.69"/>
  <polygon id="svg_28" fill="#565661" points="457.58 698.72 443.51 700.42 378.69 553.31 361.21 552.03 330.51 560.99 324.54 736.14 310.47 736.14 316.01 554.59 282.32 555.45 222.2 705.11 209.41 705.11 272.64 530.2 275.08 523.46 369.31 520.23 392.8 533.4 393.1 534.16 457.58 698.72"/>
  <path id="svg_29" opacity="0.1" d="m393.1,534.16c-20.25,6.1 -41.27,12.76 -41.27,12.76s-19.17,6.69 -27.29,0a12.27,12.27 0 0 0 -3.39,-1.87a16.7,16.7 0 0 0 3.39,1.87l-51.9,-16.73l2.43,-6.73l94.24,-3.23l23.49,13.17l0.3,0.76z"/>
  <path id="svg_30" fill="#fff" d="m297.25,505.13l38.37,-8.53s91.68,17.06 98.5,23.88c0,0 -73.34,14.92 -81.44,20s-56.29,10.7 -55.43,-35.35z"/>
  <path id="svg_31" fill="#6c63ff" d="m280.75,409.24c-3,9.51 -11.19,18.08 -21.16,18.49a3.69,3.69 0 0 1 -2.11,-0.38c-1.25,-0.78 -1.28,-2.61 -0.77,-4s1.4,-2.64 1.54,-4.1a2.68,2.68 0 0 0 -0.06,-0.89c-0.26,-1.19 -1.23,-2.25 -2.37,-2a4,4 0 0 0 0.85,-5.31a12,12 0 0 1 -1.22,-1.64c-0.83,-1.7 0.46,-3.61 1,-5.43c1.11,-4 -1.71,-8 -1.94,-12.17c-0.2,-3.73 1.69,-7.24 2.16,-10.94c0.75,-6 -2.23,-11.75 -2.58,-17.74c-0.24,-4.18 0.79,-8.32 1.94,-12.35c1,-3.6 2.13,-7.24 2.2,-11c0,-2.73 -0.47,-5.43 -0.6,-8.15a14.19,14.19 0 0 1 1.31,-7.24a5.79,5.79 0 0 1 3.29,-2.81c3.28,-1.1 5.43,0.61 5.91,3.72c0.8,5.29 0.34,10.69 1.39,16a75,75 0 0 0 4.39,14.49c1.77,4.22 3.92,8.3 5.28,12.67a69.8,69.8 0 0 1 2.19,11c1.34,9.99 2.39,20.27 -0.64,29.78z"/>
  <path id="svg_32" fill="#a26565" d="m508.51,651.28a15.51,15.51 0 0 1 -10.93,6.44c-4.34,0.54 -8.85,-0.55 -13.06,0.64a4,4 0 0 0 -3,2.31a24.54,24.54 0 0 0 -0.19,2.45c-0.49,2.67 -4,3.27 -6.73,3.25l-11.26,-0.07c-2.34,0 -4.93,-0.13 -6.61,-1.75a4.92,4.92 0 0 1 -0.1,-6.48a4.07,4.07 0 0 1 1.26,-1a4,4 0 0 1 -2.7,-3.21a11.94,11.94 0 0 1 0.21,-4.41c0,-4.18 1,-11.18 3.94,-14.45c3.61,-4.07 9.87,-9.33 15.32,-10.42a12,12 0 0 1 10.38,2.95c2.58,2.4 4.46,6.16 8,6.58c1.93,0.24 3.79,-0.67 5.7,-1a10.61,10.61 0 0 1 10.81,5.71a11.26,11.26 0 0 1 1,3.13a13,13 0 0 1 -2.04,9.33z"/>
  <path id="svg_33" opacity="0.1" d="m508.51,651.28a15.51,15.51 0 0 1 -10.93,6.44c-4.34,0.54 -8.85,-0.55 -13.06,0.64a4,4 0 0 0 -3,2.31a24.54,24.54 0 0 0 -0.19,2.45c-0.49,2.67 -4,3.27 -6.73,3.25l-11.26,-0.07c-2.34,0 -4.93,-0.13 -6.61,-1.75a4.92,4.92 0 0 1 -0.1,-6.48c6.5,-0.27 12.89,0 19.37,-1.34c2.63,-0.53 5.22,-1.23 7.88,-1.6c5.76,-0.82 11.89,-0.12 17.18,-2.56c4.41,-2 7.57,-6.07 9.44,-10.61a13,13 0 0 1 -1.99,9.32z"/>
  <path id="svg_34" fill="#454b69" d="m478.8,635.47c-4,3.1 -8.69,5.52 -13.73,5.78s-10.39,-2 -12.86,-6.38c-3.61,-6.43 -0.41,-15.37 -4.83,-21.27c-1.38,-1.85 -3.37,-3.16 -4.83,-4.95s-2.3,-4.48 -1,-6.38c-1.57,0.6 -3.23,-0.92 -3.69,-2.54s-0.17,-3.36 -0.45,-5c-0.73,-4.35 -5,-7.14 -7.05,-11s-1.77,-8.87 -2,-13.44a51,51 0 0 0 -11.8,-30.35c-1.36,-1.62 -3.1,-3.27 -5.22,-3.19c0.37,-3.66 -2.07,-7.16 -5.23,-9s-6.92,-2.46 -10.58,-2.82c-36.93,-3.64 -75.41,10.09 -110.67,-1.46c-9.81,-3.21 -19.27,-8.58 -25.27,-17a29.72,29.72 0 0 1 -5.29,-22.48l0,-0.14c1.39,-7.1 5.14,-8.85 11.35,-12.09a136.24,136.24 0 0 1 22.39,-9.39c15,-4.69 31.15,-6.38 46.63,-2.94c7.23,1.62 14.2,4.3 21.44,5.87c2.85,0.62 5.72,1.06 8.61,1.43c4.49,0.56 9,0.93 13.52,1.45a204.53,204.53 0 0 1 42.46,9.55c5.13,1.74 10.26,3.73 14.67,6.88a32.5,32.5 0 0 1 13.04,21.46c0.42,2.94 0.43,6 1.07,8.85a45,45 0 0 0 2.4,7a465.63,465.63 0 0 1 20.89,65a15.79,15.79 0 0 0 1.67,4.7c1.28,2.07 3.48,3.46 4.77,5.53c3,4.88 0.11,11.69 2.77,16.77c0.92,1.76 2.45,3.15 3.37,4.91c3,5.77 -1.43,12.67 -6.55,16.64z"/>
  <path id="svg_35" opacity="0.1" d="m427.7,520.57a16.5,16.5 0 0 0 3.63,-4a7.46,7.46 0 0 0 1.1,-5.17a14.79,14.79 0 0 1 -3.89,12.72c-2.51,2.57 -7.22,5.09 -10.89,4.21c0.52,-2.94 7.72,-5.78 10.05,-7.76z"/>
  <path id="svg_36" opacity="0.1" d="m365.22,470.73a6.71,6.71 0 0 1 -4.44,4.58a18.5,18.5 0 0 1 -6.59,0.77l-2,0c-26.24,-0.58 -52.76,-6.4 -78.39,-0.85a56.76,56.76 0 0 0 -9.06,2.67a40.9,40.9 0 0 0 -10.41,6l0,-0.14c1.39,-7.1 5.14,-8.85 11.35,-12.09a136.24,136.24 0 0 1 22.36,-9.3c15,-4.69 31.15,-6.38 46.63,-2.94c7.23,1.62 14.2,4.3 21.44,5.87c2.85,0.62 5.72,1.06 8.61,1.43a6.91,6.91 0 0 1 0.5,4z"/>
  <path id="svg_37" fill="#a26565" d="m365.22,469.3a6.7,6.7 0 0 1 -4.44,4.59a18.27,18.27 0 0 1 -6.59,0.76l-2,0c-26.24,-0.58 -52.76,-6.4 -78.39,-0.85a57.78,57.78 0 0 0 -9.06,2.66a41.2,41.2 0 0 0 -10.85,6.4q-1.15,-3.16 -2.29,-6.33c-0.92,-2.52 2,-3.08 2.56,-5.34c0.37,-1.53 -0.26,-3.27 -0.58,-4.9a8.55,8.55 0 0 1 -0.16,-1.21c-0.18,-3.61 1.11,-5.69 4.07,-7.64c8.78,-5.8 19.49,-9.78 29.51,-12.77a73,73 0 0 1 16.4,-3.18c7.88,-0.46 15.75,1 23.42,2.85c9.43,2.33 18.76,5.41 27.12,10.34c4.1,2.39 8.1,5.39 10.31,9.65a7.6,7.6 0 0 1 0.97,4.97z"/>
  <path id="svg_38" opacity="0.1" d="m280.75,409.24c-3,9.51 -11.19,18.08 -21.16,18.49a3.69,3.69 0 0 1 -2.11,-0.38c-1.25,-0.78 -1.28,-2.61 -0.77,-4s1.4,-2.64 1.54,-4.1a2.68,2.68 0 0 0 -0.06,-0.89c5.29,-7.46 10.42,-15 12.45,-23.83a12.74,12.74 0 0 0 0.37,-4.67c-0.27,-1.8 -1.18,-3.43 -1.68,-5.17c-0.88,-3.08 -0.47,-6.34 -0.22,-9.53a88,88 0 0 0 -6.84,-41.09c-1.35,-3.12 -2.89,-6.28 -3.36,-9.61a5.79,5.79 0 0 1 3.29,-2.81c3.28,-1.1 5.43,0.61 5.91,3.72c0.8,5.29 0.34,10.69 1.39,16a75,75 0 0 0 4.39,14.49c1.77,4.22 3.92,8.3 5.28,12.67a69.8,69.8 0 0 1 2.19,11c1.37,9.92 2.42,20.2 -0.61,29.71z"/>
  <path id="svg_39" opacity="0.1" d="m365.22,469.3a6.7,6.7 0 0 1 -4.44,4.59a18.27,18.27 0 0 1 -6.59,0.76l-2,0a43.57,43.57 0 0 0 -29,-7c-3.26,0.39 -6.52,1.15 -9.78,0.85c-6.59,-0.6 -11.93,-5.34 -17.8,-8.37a37.38,37.38 0 0 0 -41.43,5.62l-0.57,0.5a8.55,8.55 0 0 1 -0.16,-1.21c-0.18,-3.61 1.11,-5.69 4.07,-7.64c8.78,-5.8 19.49,-9.78 29.51,-12.77a73,73 0 0 1 16.4,-3.18c7.88,-0.46 15.75,1 23.42,2.85c9.43,2.33 18.76,5.41 27.12,10.34c4.07,2.43 8.07,5.43 10.28,9.69a7.6,7.6 0 0 1 0.97,4.97z"/>
  <path id="svg_40" fill="#6c63ff" d="m387.65,359.76l-0.14,0.36c-2.24,5.81 -6.36,10.72 -9,16.38c-3.33,7.17 -4.15,15.21 -4.89,23.09c-0.64,6.75 -1.27,13.54 -0.76,20.31c1.28,16.68 9.43,32.5 11.61,48.86a54.31,54.31 0 0 1 0.41,11.41c-0.18,2.41 -0.62,5 -2.22,6.78s-4.71,2.48 -6.43,0.77c0.77,-1.47 1.55,-2.93 2.33,-4.4c-4.57,-3.55 -11.45,-1 -16.79,-3.22c-2.35,-1 -4.23,-2.8 -6.2,-4.41a43.48,43.48 0 0 0 -32.39,-9.46c-3.26,0.4 -6.52,1.16 -9.78,0.86c-6.59,-0.61 -11.93,-5.34 -17.8,-8.37a37.4,37.4 0 0 0 -41.43,5.61c-1.4,1.3 -3.28,2.82 -5,2a4.16,4.16 0 0 1 -1.55,-1.69c-6.55,-11.19 -1.73,-25.62 5.27,-36.52s16.27,-20.95 19.15,-33.58a12.53,12.53 0 0 0 0.37,-4.67c-0.27,-1.8 -1.18,-3.43 -1.68,-5.17c-0.88,-3.08 -0.47,-6.34 -0.22,-9.53a88,88 0 0 0 -6.82,-41.1c-1.6,-3.73 -3.5,-7.51 -3.5,-11.56c0,-6.38 4.57,-11.67 8.35,-16.8c4.35,-5.9 8,-12.43 13.51,-17.28c5.22,-4.61 12.78,-7.43 19.24,-5.09a119.94,119.94 0 0 1 33.56,-3.27c3.9,0.18 7.93,0.59 11.35,2.48c3.66,2 6.29,5.56 9.89,7.69c2.63,1.57 5.66,2.31 8.52,3.41a35.21,35.21 0 0 1 18.36,16.42c4,7.75 5,16.66 5.88,25.34c0.84,8.17 1.64,16.66 -1.2,24.35z"/>
  <path id="svg_41" opacity="0.1" d="m372.86,419.9c1.28,16.68 9.43,32.5 11.61,48.86c-4.36,-3.69 -10.43,-7.4 -11.24,-11.69c-0.9,-4.64 -3.78,-10.72 -4.26,-15.41s2.81,-10.42 -0.64,-13.64c-1.68,-1.57 2.79,-1.13 1.15,-2.74c-3.69,-3.59 -4.6,-9.12 -4.83,-14.25c-0.39,-9.08 0.76,-18.26 -0.91,-27.19c-1,-5.51 -3.09,-10.76 -4.76,-16.11c-1.94,-6.23 -3.34,-12.61 -4.74,-19a133.12,133.12 0 0 1 -3,-17.26c-0.43,-5 -0.23,-10.3 2,-14.86s6.74,-8.26 11.8,-8.19c16.92,0.22 14,23.16 17.72,33.76c1.49,4.22 3.5,8.3 4.31,12.7a33.66,33.66 0 0 1 0.48,5.22c-2.24,5.81 -6.36,10.72 -9,16.38c-3.33,7.17 -4.15,15.21 -4.89,23.09c-0.68,6.77 -1.31,13.56 -0.8,20.33z"/>
  <path id="svg_42" fill="#6c63ff" d="m383.86,341.92c1.49,4.22 3.5,8.3 4.31,12.7c1.35,7.37 -0.74,15.2 1.53,22.34a38.92,38.92 0 0 1 1.48,4.67c0.39,2.27 -0.06,4.59 -0.06,6.9c0,3.72 1.17,7.32 2.21,10.89a194.63,194.63 0 0 1 6.95,37.16a46.59,46.59 0 0 0 1.59,10a33.21,33.21 0 0 1 1.08,3.38a17.48,17.48 0 0 1 0.19,4.63c-0.27,4.9 -0.82,9.82 -0.27,14.7s2.33,9.83 6,13.1c-3.28,0.71 -6.75,1.42 -9.95,0.37c-4.5,-1.47 -7.2,-6 -9.49,-10.12c-2.9,-5.26 -13.92,-10 -15.06,-15.91c-0.89,-4.63 -3.77,-10.71 -4.25,-15.41s2.8,-10.41 -0.65,-13.63c-1.67,-1.57 2.8,-1.14 1.15,-2.74c-3.68,-3.59 -4.59,-9.12 -4.82,-14.26c-0.39,-9.07 0.75,-18.25 -0.91,-27.18c-1,-5.51 -3.09,-10.76 -4.76,-16.12c-1.94,-6.22 -3.34,-12.6 -4.74,-19a131.73,131.73 0 0 1 -3,-17.26c-0.43,-5 -0.24,-10.31 2,-14.87s6.75,-8.25 11.8,-8.19c16.85,0.3 13.95,23.25 17.67,33.85z"/>
  <path id="svg_43" opacity="0.1" d="m335.64,345.83c1.58,1.85 3.61,3.88 6,3.52a1.3,1.3 0 0 1 -1.77,0.42a3.8,3.8 0 0 1 -1.33,-1.53l-3.42,-5.77c-0.45,-0.75 -3.55,-5.12 -4.31,-2.6c-0.3,1.07 4.06,5.06 4.83,5.96z"/>
  <path id="svg_44" opacity="0.1" d="m333.8,360.22a7.62,7.62 0 0 0 -2.23,-5a12.5,12.5 0 0 0 -4.13,-2.49c-3.75,-1.54 -8.19,-2.78 -12.26,-2.58c1.48,2.16 6.23,3.45 8.61,4.67q5.06,2.61 10.01,5.4z"/>
  <path id="svg_45" opacity="0.1" d="m344.45,401.18c-0.69,5.12 -4.88,9 -9.12,12s-9,5.58 -11.77,9.92c-1.92,3 -2.78,6.48 -4.41,9.61c-1.8,3.45 -4.49,6.35 -6.64,9.59s-3.83,7.11 -3.17,10.95a1.29,1.29 0 0 0 0.46,0.92a1.31,1.31 0 0 0 1.27,-0.14c4.36,-2.28 6.08,-7.49 7.91,-12a138.65,138.65 0 0 1 6.48,-13.32c1.08,-2 2.27,-4.18 4.28,-5.29a37.55,37.55 0 0 1 4.22,-1.47a14.19,14.19 0 0 0 5.21,-4.09a34.34,34.34 0 0 0 8,-23.31c-0.06,-1.79 -0.16,-10.41 -2.85,-7.75s0.59,10.9 0.13,14.38z"/>
  <path id="svg_46" fill="#a26565" d="m351.04,204.81c8.6,3.75 16,12 15.73,21.35c-0.23,9.82 -8.45,19.07 -5.62,28.48c1.64,5.46 6.58,9.12 10.49,13.27c14.89,15.76 14.86,43.27 -0.08,59c-5.72,6 -13.07,10.27 -19.12,16c-21.33,20.1 -22.24,54.87 -10.82,81.86a133.14,133.14 0 0 1 -26.62,3c-4.19,0 -9.32,-0.71 -10.84,-4.62c-1.4,-3.61 1,-8.49 -1.76,-11.16c-1.3,-1.25 -3.25,-1.42 -5,-1.71c-11.26,-1.82 -20.5,-10.81 -24.72,-21.4s-4,-22.51 -1.58,-33.65c1.72,-8.05 4.41,-16.91 0.42,-24.11c-5,-9.06 -19.38,-12.88 -19.16,-23.24c0.18,-8.49 10.19,-12.62 15.87,-18.93c10.48,-11.62 5.49,-29.65 5.47,-45.31c0,-13.78 4.82,-28 15.08,-37.18c15.26,-13.77 44.65,-9.3 62.26,-1.65z"/>
  <g id="svg_47" opacity="0.1">
   <path id="svg_48" d="m273.16,320.85c-4.39,-7.92 -15.92,-11.84 -18.6,-19.63a11.09,11.09 0 0 0 -2.16,6.26c-0.22,10.36 14.14,14.18 19.16,23.25a18.89,18.89 0 0 1 2,10.42c1.58,-6.96 2.97,-14.22 -0.4,-20.3z"/>
   <path id="svg_49" d="m362.3,241.82c1.8,-5.25 4.41,-10.55 4.54,-16a15,15 0 0 0 -0.05,-1.77c-2.01,6.02 -5.09,11.86 -4.49,17.77z"/>
   <path id="svg_50" d="m274.88,269.79c3.44,-10.87 0.47,-24.35 0.46,-36.41c0,-1.46 0.06,-2.93 0.17,-4.39a57.74,57.74 0 0 0 -1.78,14.26c0.02,8.61 1.53,17.95 1.15,26.54z"/>
   <path id="svg_51" d="m373.23,316.68c-5.72,6 -13.07,10.27 -19.12,16c-10.8,10.17 -16.35,24.1 -17.74,38.87c2.58,-11 7.79,-21.13 16.14,-29c6,-5.7 13.4,-9.95 19.12,-16a42.49,42.49 0 0 0 11.15,-27.06a40.61,40.61 0 0 1 -9.55,17.19z"/>
   <path id="svg_52" d="m316.67,417.51c-4.19,0 -9.32,-0.72 -10.84,-4.63c-1.4,-3.6 1,-8.48 -1.76,-11.16c-1.3,-1.25 -3.26,-1.42 -5,-1.71c-11.25,-1.81 -20.49,-10.81 -24.71,-21.39c-3.11,-7.82 -3.78,-16.35 -3,-24.77c-0.08,0.33 -0.15,0.66 -0.22,1c-2.38,11.14 -2.63,23.07 1.58,33.66s13.46,19.58 24.71,21.39c1.78,0.29 3.74,0.47 5,1.71c2.79,2.68 0.36,7.56 1.76,11.16c1.52,3.91 6.65,4.68 10.84,4.63a133.23,133.23 0 0 0 26.62,-3a89.38,89.38 0 0 1 -3.23,-8.93a132.74,132.74 0 0 1 -21.75,2.04z"/>
  </g>
  <path id="svg_53" opacity="0.1" d="m349.42,373.9c2.47,1.86 5.15,-5.23 3.62,-7c-0.41,0.46 -4,6.74 -3.62,7z"/>
  <path id="svg_54" opacity="0.1" d="m359.95,502.24c2.91,-1 6,-2 7.9,-4.4c1.57,-1.93 2.86,-9.59 -0.46,-5.92c-2.82,3.15 -4.15,7.3 -7.44,10.32z"/>
  <path id="svg_55" opacity="0.1" d="m389.58,494.21c-0.35,2.36 -1,4.81 -2.67,6.51c-0.31,0.32 -1,0.52 -1.09,0.09a25.29,25.29 0 0 0 5.16,-3.64c3.38,-3.35 3.84,-11.6 -1.31,-13.79c-0.05,3.62 0.46,7.15 -0.09,10.83z"/>
  <path id="svg_56" fill="#454b69" d="m425.15,479.34s-28.38,-11.15 -38.64,-10s11.62,17.32 11.62,17.32l13.08,8.82s8,-3 8.53,-3.23s5.41,-12.91 5.41,-12.91z"/>
  <path id="svg_57" fill="#565661" d="m229.88,359.72s21.32,-12.36 49.46,3s32.83,105.75 32.83,105.75s-11.51,92.09 32.87,71.6c0,0 81,-25.15 89.11,-19.61c0,0 7.68,0 -7.67,3.41s-74.65,22.2 -74.65,22.2s-19.17,6.7 -27.29,0s-31.13,0.86 -34.12,-45.2a801,801 0 0 0 -10.66,-86.56l-7.91,-23.45l-41.97,-31.14z"/>
  <path id="svg_58" fill="#fff" d="m227.32,502.14s9.38,-93.38 -6,-127.07c-13.38,-29.36 38.36,-15.63 51.86,-11.63a9.83,9.83 0 0 1 5.18,3.7c8,11.25 36.7,56.34 28.24,116.67c0,0 -3.41,53.73 17.91,62.25l-65.69,-21.16c-5.33,-1.72 -10.74,-3.15 -16.2,-4.39c-6.96,-1.58 -18.3,-6.07 -15.3,-18.37z"/>
  <polygon id="svg_59" fill="#565661" points="694.53 676.47 703.06 676.47 708.65 561.83 709.03 555.31 701.78 552.76 701.3 559.69 694.53 676.47"/>
  <polygon id="svg_60" opacity="0.1" points="701.3 559.69 708.65 561.83 709.03 555.31 701.78 552.76 701.3 559.69"/>
  <path id="svg_61" fill="#a26565" d="m623.31,632.2a19.23,19.23 0 0 1 -1.2,4.58a8.09,8.09 0 0 1 -3.65,4.56a9.64,9.64 0 0 1 -3.69,0.73c-4.71,0.28 -9.69,0.21 -13.74,-2.19a25,25 0 0 1 -4.71,-3.93a214.9,214.9 0 0 1 -24.72,-29.4c-1.23,-1.77 -2.5,-3.86 -1.95,-6a93.21,93.21 0 0 0 26.77,-12.25a12.92,12.92 0 0 1 3.76,-2a20.43,20.43 0 0 1 7.06,-0.26c2.27,0.37 2.37,0.44 3.24,3c1.44,4.33 1.2,9 2.82,13.33a41.3,41.3 0 0 0 3.74,6.84c4.18,6.99 7.39,15.24 6.27,22.99z"/>
  <path id="svg_62" opacity="0.1" d="m623.31,632.2a19.23,19.23 0 0 1 -1.2,4.58a8.09,8.09 0 0 1 -3.65,4.56a9.64,9.64 0 0 1 -3.69,0.73c-4.71,0.28 -9.69,0.21 -13.74,-2.19a25,25 0 0 1 -4.71,-3.93a214.9,214.9 0 0 1 -24.72,-29.4c-1.23,-1.77 -2.5,-3.86 -1.95,-6a92.81,92.81 0 0 0 9.16,-3.06l0.15,0.11c3.07,2.19 5.3,5.33 7.47,8.41l7,9.85a29,29 0 0 0 4.39,5.3a29.38,29.38 0 0 0 6.79,4.08c3.29,1.59 6.58,3.18 10,4.46c2.21,0.89 5.95,1.24 8.7,2.5z"/>
  <path id="svg_63" fill="#454b69" d="m629.77,525.41a30.1,30.1 0 0 1 -2.5,4.77a204.16,204.16 0 0 0 -21.32,49.89c-1.38,-0.31 -2.16,1.57 -2.15,3s0,3.23 -1.32,3.75c-0.39,0.15 -0.83,0.15 -1.21,0.32c-0.84,0.38 -1.08,1.45 -1.2,2.37l-1.18,8.66c-0.41,3 -0.77,6.25 0.7,8.9a14.23,14.23 0 0 0 3.87,4l19.52,15.4c0.8,0.63 1.79,1.3 2.75,0.95c2.19,-0.8 0.25,-4.72 2,-6.31c1.16,-1.09 3,-0.27 4.61,-0.4c2.1,-0.16 3.69,-2.09 4.22,-4.12a19.59,19.59 0 0 0 0.11,-6.26a5.68,5.68 0 0 1 0.32,-2.81a6.82,6.82 0 0 1 2.39,-2.29a25.66,25.66 0 0 0 10.51,-21.64a12,12 0 0 1 0.14,-3.83a10.09,10.09 0 0 1 1.81,-3.16c7.09,-9.59 13,-20 18.87,-30.39c3.38,-6 6.82,-12.09 8,-18.85a1.75,1.75 0 0 0 -1.44,-2.4a68,68 0 0 0 -8.94,-2.14c-9.19,-1.86 -18.06,-4.73 -27,-7.49s-8.87,2.86 -11.56,10.08z"/>
  <polygon id="svg_64" fill="#565661" points="587.5 700.72 601.58 702.42 666.39 555.31 683.87 554.03 714.58 562.99 720.54 738.14 734.61 738.14 729.07 556.59 762.76 557.45 822.88 707.11 835.67 707.11 772.44 532.2 770.01 525.46 675.77 522.23 652.28 535.4 651.98 536.16 587.5 700.72"/>
  <path id="svg_65" opacity="0.1" d="m651.98,536.16c20.25,6.1 41.27,12.76 41.27,12.76s19.17,6.69 27.29,0a12.27,12.27 0 0 1 3.39,-1.87a16.7,16.7 0 0 1 -3.39,1.87l51.9,-16.73l-2.4,-6.73l-94.24,-3.23l-23.49,13.17l-0.33,0.76z"/>
  <path id="svg_66" fill="#fff" d="m747.83,507.13l-38.37,-8.53s-91.68,17.06 -98.5,23.88c0,0 73.34,14.92 81.44,20s56.29,10.7 55.43,-35.35z"/>
  <path id="svg_67" fill="#a26565" d="m605.45,644.21c-2.31,4.4 -8,5.64 -13,5.71a54.89,54.89 0 0 1 -20.32,-3.63c-3.7,-1.42 -7.25,-3.25 -11.07,-4.29c-5.69,-1.56 -12,-1.43 -17,-4.56a20,20 0 0 1 -6.39,-6.93c-0.29,-0.49 -0.57,-1 -0.83,-1.52c-2.39,-4.65 -3.5,-10.06 -2.17,-15.08s6.16,-10.55 11.76,-10.47c6.65,0.1 14.58,3.25 21,4.88c8,2 16,4.31 23.07,8.54c5.92,3.56 11.15,8.67 13.94,14.91a25.27,25.27 0 0 1 1.32,3.72c0.87,2.88 1.07,6.09 -0.31,8.72z"/>
  <path id="svg_68" opacity="0.1" d="m605.45,644.21c-2.31,4.4 -8,5.64 -13,5.71a54.89,54.89 0 0 1 -20.32,-3.63c-3.7,-1.42 -7.25,-3.25 -11.07,-4.29c-5.69,-1.56 -12,-1.43 -17,-4.56a20,20 0 0 1 -6.39,-6.93c-0.29,-0.49 -0.57,-1 -0.83,-1.52c1,0.08 1.92,0.18 2.42,0.23c6.14,0.59 12,2.83 17.86,4.52a100.32,100.32 0 0 0 25,3.9c6,0.17 12.26,-0.27 17.5,-3.2a45.91,45.91 0 0 1 4.86,-2.67a25.27,25.27 0 0 1 1.32,3.72c0.83,2.88 1.03,6.09 -0.35,8.72z"/>
  <path id="svg_69" fill="#454b69" d="m648.42,454.07c-13,-2.13 -26.24,-2.65 -39.42,-3.17l-16.12,-0.64a7.31,7.31 0 0 0 -3.39,0.41a22.09,22.09 0 0 0 -2.65,2c-1.62,1.1 -3.69,1.22 -5.64,1.33a280.77,280.77 0 0 0 -41.16,5.34c-7,1.43 -14.27,3.3 -19.53,8.13c-5.56,5.11 -8,12.9 -8.19,20.44s1.79,14.95 3.88,22.19a101.09,101.09 0 0 1 4.37,26.86a50.25,50.25 0 0 0 0.29,7.57a36.22,36.22 0 0 0 2.11,7l7.36,19.65c0.65,1.72 1.29,3.43 2,5.11s1.39,3 2,4.58c0.9,2.16 1.61,4.4 2.32,6.63l4.9,15.39l0.64,2c1.77,5.54 3.58,11.18 6.92,15.94s8.51,8.6 14.32,8.89a43.86,43.86 0 0 1 5.62,0.15a22.72,22.72 0 0 1 4.61,1.67a35.17,35.17 0 0 0 13.77,2.69c4.35,0 9.18,-1.21 11.54,-4.87c1.3,-2 1.64,-4.46 2,-6.82c0.63,-4.74 1.24,-9.69 -0.37,-14.19c-1,-2.69 -2.68,-5 -3.84,-7.65c-1.62,-3.61 -2.15,-7.6 -3.2,-11.41a43.58,43.58 0 0 0 -13.3,-21.16a208.58,208.58 0 0 1 -5,-27.38a24.09,24.09 0 0 0 -1.21,-6c-1.17,-3 -3.54,-5.43 -4.53,-8.49c-0.93,-2.84 -0.65,-6.12 -2.34,-8.57c14.07,3.87 28,3 42.61,2.77a116.42,116.42 0 0 0 14,-0.8a44,44 0 0 1 6.56,-0.7c4.52,0 8.76,2 12.91,3.76c11.73,5 24.09,8.93 36.83,9.47c13.15,0.55 26.15,-2.54 39,-5.6c5.65,-1.35 11.52,-2.81 16,-6.52s7,-10.4 4.24,-15.49c-2.1,-3.83 -6.45,-5.71 -10.51,-7.31c-11.24,-4.44 -22.54,-8.77 -33.37,-14.14c-16.54,-8.06 -28.91,-26.06 -47.03,-29.06z"/>
  <path id="svg_70" fill="#a1616a" d="m625.24,408.83c-1.57,3.4 -4.21,6.18 -6.16,9.38a23.77,23.77 0 0 0 -3,17.65a20.08,20.08 0 0 0 11.25,13.69a28.23,28.23 0 0 0 7.8,1.88c3.52,0.43 7.27,0.52 10.38,-1.18a15.16,15.16 0 0 0 5.53,-5.78c2.69,-4.5 4.22,-9.57 5.62,-14.62c2.59,-9.32 4.8,-18.88 4.48,-28.55c-0.11,-3.33 -0.77,-7.08 -3.53,-9a11.87,11.87 0 0 0 -4.64,-1.52l-13.19,-2.36c-2.55,-0.46 -7,-2.33 -9.21,-0.49s-2.38,7.28 -2.76,9.83c-0.6,3.77 -0.97,7.6 -2.57,11.07z"/>
  <path id="svg_71" fill="#a1616a" d="m785.57,370.15l-3.45,28.92a133,133 0 0 0 -1.23,15.56c0,2.9 0.09,6.12 -1.83,8.29a7.56,7.56 0 0 1 -3.44,2.07c-4.19,1.3 -8.76,0.14 -12.76,-1.65c-2.34,-1 -4.73,-2.45 -5.79,-4.78a11.88,11.88 0 0 1 -0.75,-5.07c0,-17.25 1.63,-35.24 10.64,-49.94a10.89,10.89 0 0 1 3.17,-3.66c2.5,-1.6 5.77,-1.15 8.6,-0.28c1.74,0.53 6.44,1.12 7.55,2.67s-0.47,5.88 -0.71,7.87z"/>
  <circle id="svg_72" fill="#a1616a" r="36" cy="229.57" cx="694.04"/>
  <path id="svg_73" fill="#a1616a" d="m684.41,283.22a18.57,18.57 0 0 1 -2.23,8q27.57,-4.2 55,-9.36a25.83,25.83 0 0 1 -12.76,-15a42.36,42.36 0 0 1 -1.62,-10.69a123.57,123.57 0 0 1 0.33,-17.21c-6.4,0.67 -12.46,3.07 -18.56,5.13a183,183 0 0 1 -18.69,5.23c-3.05,0.68 -6.12,1.26 -9.2,1.8c-3.6,0.64 -5.33,0.63 -2.83,3.79c6.71,8.44 11.5,17.02 10.56,28.31z"/>
  <path id="svg_74" fill="#6c63ff" d="m695.47,278.41c-4.75,0.71 -9.73,1.51 -13.52,4.45a51,51 0 0 0 -4.11,3.95c-7.53,7.31 -18.16,10.25 -27.3,15.41a12,12 0 0 0 -3.88,3.05c-1,1.39 -1.51,3.16 -2.56,4.54c-1.22,1.6 -3.15,2.6 -4.1,4.37s-0.74,3.65 -0.84,5.53c-0.23,4.13 -1.79,8.05 -3,12c-5.55,18.91 -2.51,40 -10.91,57.86a8.13,8.13 0 0 0 4.42,4.62a25.1,25.1 0 0 0 6.56,1.41l18.61,2.31c2.66,0.33 5.48,0.64 7.91,-0.47a92.94,92.94 0 0 0 -4.69,18.93a94.28,94.28 0 0 1 -2.1,11.72c-2.56,8.8 -9,16.13 -16.63,21.14a6.15,6.15 0 0 0 -2.35,2.17c-1,2 0.48,4.24 1.53,6.2c3.05,5.68 2.63,12.5 2.59,18.94s0.61,13.51 5.11,18.13c2.66,2.73 6.3,4.21 9.84,5.62l29.11,11.63a101.45,101.45 0 0 0 14.82,5c7.67,1.75 15.64,1.68 23.51,1.34q7.8,-0.33 15.58,-1a12.12,12.12 0 0 0 5.89,-1.55a11,11 0 0 0 3.45,-4.68c4.05,-8.81 5.41,-19.09 11.69,-26.47c4.31,-5.07 11,-9.12 11.49,-15.75c0.23,-3.3 -1.24,-6.51 -1.26,-9.82c0,-4.07 2.13,-7.94 2,-12c-0.27,-6.61 -6.5,-11.65 -7.49,-18.19c-2.52,-16.58 5.9,-33.14 11.07,-49.09c0.93,-2.85 2.13,-6 4.87,-7.22s6.6,-0.58 7.58,-3.28c2.47,-6.78 3.06,-14.73 2.74,-21.94c-0.18,-4.17 -1.66,-8.25 -1.49,-12.43c0.12,-2.94 1.06,-5.8 1.31,-8.73c0.38,-4.43 -0.79,-8.83 -2,-13.11a20.54,20.54 0 0 0 -1.56,-4.42a21,21 0 0 0 -2.6,-3.57l-4.87,-5.79c-2.28,-2.71 -4.69,-5.52 -8,-6.89c-1.07,-2.65 -4.49,-4.48 -6.94,-5.94a71.12,71.12 0 0 0 -7.64,-3.75l-27.54,-12.16a11.28,11.28 0 0 0 -3.27,-1.06a10.59,10.59 0 0 0 -4.86,1c-8.4,3.33 -17.17,6.65 -26.17,7.99z"/>
  <path id="svg_75" fill="#464353" d="m666.3,235.83c-1.06,-3.73 -3.77,-6.95 -4.18,-10.81c-0.37,-3.43 1.14,-6.75 2,-10.09s0.83,-7.42 -1.82,-9.64c-0.44,-0.38 -1,-0.72 -1.16,-1.28c-0.32,-1 0.69,-1.91 1,-2.92c0.57,-2 -1.9,-4.21 -1,-6.13c0.51,-1.05 1.79,-1.42 2.91,-1.75c4.28,-1.27 8.62,-4.09 9.55,-8.46c3.35,1.4 6.92,-1.23 9.49,-3.78s5.73,-5.46 9.27,-4.69l-0.79,1.61a25.6,25.6 0 0 1 16.93,-0.19l-1.68,0a23.22,23.22 0 0 1 13.39,4.53c-0.43,0 -0.47,0.64 -0.3,1c1.4,3.27 5,5 8.47,5.81c2.09,0.5 4.36,0.86 5.89,2.36s1.56,4.63 -0.46,5.35a52.6,52.6 0 0 1 11.61,6.3c1,0.73 2.13,1.72 2,3a9.76,9.76 0 0 1 -0.62,1.87a6.47,6.47 0 0 0 0.21,3.2l1.11,4.58c1.22,5.09 2.18,11.22 -1.53,14.91a13.69,13.69 0 0 1 -2.41,16.16a6.66,6.66 0 0 1 -5,8.61c1.23,1.92 0.1,4.66 -1.84,5.86s-4.38,1.21 -6.64,1s-4.55,-0.72 -6.81,-0.38c-3.29,0.51 -6.51,2.75 -9.68,1.75a21.73,21.73 0 0 1 -3.39,-1.82c-2.22,-1.19 -4.8,-1.46 -7.26,-2a33.54,33.54 0 0 1 -11.73,-5a13.75,13.75 0 0 1 -5.39,-6c-2.2,-5.56 1.5,-12.85 -2.39,-17.38c-2.28,-2.64 -6.8,-2.68 -9.35,-0.42c-1.27,1.13 -1.44,3.51 -2.76,4.36a17.45,17.45 0 0 1 -5.64,0.48z"/>
  <path id="svg_76" opacity="0.1" d="m617.38,522.57a16.5,16.5 0 0 1 -3.63,-4a7.46,7.46 0 0 1 -1.1,-5.17a14.79,14.79 0 0 0 3.89,12.72c2.51,2.57 7.22,5.09 10.89,4.21c-0.52,-2.94 -7.72,-5.78 -10.05,-7.76z"/>
  <path id="svg_77" fill="#565661" d="m815.2,361.72s-21.32,-12.36 -49.46,3s-32.83,105.75 -32.83,105.75s11.51,92.09 -32.87,71.6c0,0 -81,-25.15 -89.11,-19.61c0,0 -7.68,0 7.67,3.41s74.65,22.2 74.65,22.2s19.17,6.7 27.29,0s31.13,0.86 34.12,-45.2a801,801 0 0 1 10.66,-86.56l7.91,-23.45l41.97,-31.14z"/>
  <path id="svg_78" fill="#fff" d="m817.76,504.14s-9.38,-93.38 6,-127.07c13.38,-29.36 -38.36,-15.63 -51.86,-11.63a9.83,9.83 0 0 0 -5.18,3.7c-8,11.25 -36.7,56.34 -28.24,116.67c0,0 3.41,53.73 -17.91,62.25l65.69,-21.16c5.33,-1.72 10.74,-3.15 16.2,-4.39c6.96,-1.58 18.3,-6.07 15.3,-18.37z"/>
  <ellipse id="svg_79" opacity="0.1" fill="#6c63ff" ry="15.65" rx="97.44" cy="670.07" cx="989.97"/>
  <rect id="svg_80" fill="#535461" height="141.17" width="6.27" y="370.26" x="986.83"/>
  <path id="svg_81" fill="#565661" d="m1032.51,511l-0.39,6.36l-0.56,9l-0.23,3.74l-0.55,9l-0.24,3.74l-0.56,9l-6.32,102.07a17.3,17.3 0 0 1 -17.26,16.16l-32.87,0a17.28,17.28 0 0 1 -17.24,-16.22l-6.34,-102.08l-0.55,-9l-0.23,-3.74l-0.57,-9l-0.23,-3.74l-0.55,-9l-0.4,-6.36a9,9 0 0 1 8.94,-9.51l67.22,0a9,9 0 0 1 8.93,9.58z"/>
  <polygon id="svg_82" fill="#9d9cb5" points="1032.12 517.36 1031.56 526.33 948.38 526.33 947.82 517.36 1032.12 517.36"/>
  <polygon id="svg_83" fill="#9d9cb5" points="1031.33 530.08 1030.78 539.06 949.17 539.06 948.61 530.08 1031.33 530.08"/>
  <polygon id="svg_84" fill="#9d9cb5" points="1030.54 542.8 1029.98 551.77 949.96 551.77 949.4 542.8 1030.54 542.8"/>
  <path id="svg_85" fill="#6c63ff" d="m938.24,423.17c36.52,26.42 51.73,67.74 51.73,67.74s-44,-1.51 -80.53,-27.93s-51.72,-67.73 -51.72,-67.73s44.01,1.51 80.52,27.92z"/>
  <path id="svg_86" stroke-width="2" stroke-miterlimit="10" stroke="#535461" fill="none" d="m857.72,395.25s45.67,25.35 60.33,46.34s71.92,49.32 71.92,49.32"/>
  <path id="svg_87" fill="#6c63ff" d="m961.81,369.95c19.88,14.37 28.16,36.87 28.16,36.87s-24,-0.83 -43.83,-15.2s-28.1,-36.87 -28.1,-36.87s23.9,0.82 43.77,15.2z"/>
  <path id="svg_88" stroke-width="2" stroke-miterlimit="10" stroke="#535461" fill="none" d="m918.04,354.75s24.86,13.8 32.83,25.22s39.15,26.85 39.15,26.85"/>
  <path id="svg_89" fill="#6c63ff" d="m1018.85,405.67c-22.83,25.09 -27.66,57.88 -27.66,57.88s32.19,-7.9 55,-33s27.66,-57.88 27.66,-57.88s-32.17,7.91 -55,33z"/>
  <path id="svg_90" stroke-width="2" stroke-miterlimit="10" stroke="#535461" fill="none" d="m1073.87,372.68s-29.74,25.72 -37.3,43.44s-45.38,47.43 -45.38,47.43"/>
  <path id="svg_91" fill="#dfe6f5" d="m556.98,345.27l0,2.28l-67.61,0l0,-1.85a22.72,22.72 0 0 0 5.22,-2.78a22.21,22.21 0 0 0 9.28,-18.06a21.92,21.92 0 0 0 -0.69,-5.47a22.23,22.23 0 0 0 -12.28,-14.73l65.62,0a22.23,22.23 0 0 0 -12.28,14.73a21.92,21.92 0 0 0 -0.68,5.47a22.2,22.2 0 0 0 9.27,18.06a22.87,22.87 0 0 0 4.15,2.35z"/>
  <path id="svg_92" opacity="0.1" d="m556.52,304.66a22.23,22.23 0 0 0 -12.28,14.73l-41.06,0a22.23,22.23 0 0 0 -12.28,-14.73l65.62,0z"/>
  <path id="svg_93" fill="#dfe6f5" d="m411.96,293.01l0,12.84c0,7.08 5.18,12.83 11.58,12.83l198.91,0c6.4,0 11.59,-5.75 11.59,-12.83l0,-12.84l-222.08,0z"/>
  <path id="svg_94" opacity="0.1" d="m556.98,345.27l0,2.28l-67.61,0l0,-1.85a22.72,22.72 0 0 0 5.22,-2.78l58.24,0a22.87,22.87 0 0 0 4.15,2.35z"/>
  <rect id="svg_95" fill="#dfe6f5" rx="3.39" height="6.77" width="112.29" y="343.63" x="467.03"/>
  <path id="svg_96" fill="#474157" d="m634.04,152.38a11.58,11.58 0 0 0 -11.59,-11.58l-198.91,0a11.57,11.57 0 0 0 -11.58,11.58l0,143.13l222.08,0l0,-143.13z"/>
  <path id="svg_97" fill="#4c4c78" d="m627.98,157.55l0,123a5.7,5.7 0 0 1 -5.7,5.71l-198.56,0a5.7,5.7 0 0 1 -5.7,-5.71l0,-123a5.62,5.62 0 0 1 0.76,-2.85a5.7,5.7 0 0 1 4.94,-2.85l198.56,0a5.7,5.7 0 0 1 5.7,5.7z"/>
  <circle id="svg_98" fill="#fff" r="2.67" cy="146.32" cx="523"/>
  <circle id="svg_99" fill="#fff" r="6.59" cy="306.38" cx="523"/>
  <path id="svg_100" fill="#c8cad7" d="m627.98,157.55l-209.94,0a5.7,5.7 0 0 1 5.7,-5.7l198.54,0a5.7,5.7 0 0 1 5.7,5.7z"/>
  <circle id="svg_101" fill="#ededf4" r="1.43" cy="154.7" cx="423.72"/>
  <circle id="svg_102" fill="#ededf4" r="1.43" cy="154.7" cx="428"/>
  <circle id="svg_103" fill="#ededf4" r="1.43" cy="154.7" cx="432.28"/>
 </g>
</svg>